<mxfile host="app.diagrams.net" agent="Mozilla/5.0 (Macintosh; Intel Mac OS X 10_15_7) AppleWebKit/537.36 (KHTML, like Gecko) Chrome/126.0.0.0 Safari/537.36" version="24.7.7">
  <diagram name="Page-1" id="oxfHgqt8jFYFugZELiIX">
    <mxGraphModel dx="1831" dy="638" grid="1" gridSize="10" guides="1" tooltips="1" connect="1" arrows="1" fold="1" page="1" pageScale="1" pageWidth="827" pageHeight="1169" math="0" shadow="0">
      <root>
        <mxCell id="0" />
        <mxCell id="1" parent="0" />
        <mxCell id="nyYNzJePaRS5SE4JTXhw-1" value="" style="rounded=0;whiteSpace=wrap;html=1;" vertex="1" parent="1">
          <mxGeometry x="110" y="100" width="420" height="440" as="geometry" />
        </mxCell>
        <mxCell id="nyYNzJePaRS5SE4JTXhw-2" value="Online Ordering System" style="text;html=1;align=center;verticalAlign=middle;whiteSpace=wrap;rounded=0;strokeColor=default;" vertex="1" parent="1">
          <mxGeometry x="370" y="100" width="160" height="20" as="geometry" />
        </mxCell>
        <mxCell id="nyYNzJePaRS5SE4JTXhw-3" value="&lt;font style=&quot;font-size: 14px;&quot;&gt;Cart&lt;/font&gt;" style="text;html=1;align=center;verticalAlign=middle;whiteSpace=wrap;rounded=0;strokeColor=default;" vertex="1" parent="1">
          <mxGeometry x="150" y="100" width="80" height="30" as="geometry" />
        </mxCell>
        <mxCell id="nyYNzJePaRS5SE4JTXhw-4" value="Total Amount" style="text;html=1;align=center;verticalAlign=middle;whiteSpace=wrap;rounded=0;strokeColor=default;" vertex="1" parent="1">
          <mxGeometry x="150" y="160" width="90" height="30" as="geometry" />
        </mxCell>
        <mxCell id="nyYNzJePaRS5SE4JTXhw-5" value="Total Price" style="text;html=1;align=center;verticalAlign=middle;whiteSpace=wrap;rounded=0;strokeColor=default;" vertex="1" parent="1">
          <mxGeometry x="350" y="160" width="90" height="30" as="geometry" />
        </mxCell>
        <mxCell id="nyYNzJePaRS5SE4JTXhw-6" value="" style="endArrow=none;html=1;rounded=0;exitX=0;exitY=0.25;exitDx=0;exitDy=0;entryX=1;entryY=0.25;entryDx=0;entryDy=0;" edge="1" parent="1" source="nyYNzJePaRS5SE4JTXhw-1" target="nyYNzJePaRS5SE4JTXhw-1">
          <mxGeometry width="50" height="50" relative="1" as="geometry">
            <mxPoint x="390" y="340" as="sourcePoint" />
            <mxPoint x="440" y="290" as="targetPoint" />
          </mxGeometry>
        </mxCell>
        <mxCell id="nyYNzJePaRS5SE4JTXhw-7" value="" style="rounded=0;whiteSpace=wrap;html=1;" vertex="1" parent="1">
          <mxGeometry x="150" y="230" width="290" height="60" as="geometry" />
        </mxCell>
        <mxCell id="nyYNzJePaRS5SE4JTXhw-8" value="product description" style="text;html=1;align=center;verticalAlign=middle;whiteSpace=wrap;rounded=0;strokeColor=default;" vertex="1" parent="1">
          <mxGeometry x="260" y="230" width="180" height="30" as="geometry" />
        </mxCell>
        <mxCell id="nyYNzJePaRS5SE4JTXhw-9" value="image" style="rounded=0;whiteSpace=wrap;html=1;" vertex="1" parent="1">
          <mxGeometry x="160" y="235" width="90" height="50" as="geometry" />
        </mxCell>
        <mxCell id="nyYNzJePaRS5SE4JTXhw-10" value="color" style="text;html=1;align=center;verticalAlign=middle;whiteSpace=wrap;rounded=0;strokeColor=default;" vertex="1" parent="1">
          <mxGeometry x="260" y="260" width="60" height="30" as="geometry" />
        </mxCell>
        <mxCell id="nyYNzJePaRS5SE4JTXhw-11" value="12" style="text;html=1;align=center;verticalAlign=middle;whiteSpace=wrap;rounded=0;" vertex="1" parent="1">
          <mxGeometry x="240" y="160" width="60" height="30" as="geometry" />
        </mxCell>
        <mxCell id="nyYNzJePaRS5SE4JTXhw-12" value="$120" style="text;html=1;align=center;verticalAlign=middle;whiteSpace=wrap;rounded=0;" vertex="1" parent="1">
          <mxGeometry x="440" y="160" width="60" height="30" as="geometry" />
        </mxCell>
        <mxCell id="nyYNzJePaRS5SE4JTXhw-13" value="size" style="text;html=1;align=center;verticalAlign=middle;whiteSpace=wrap;rounded=0;strokeColor=default;" vertex="1" parent="1">
          <mxGeometry x="320" y="260" width="60" height="30" as="geometry" />
        </mxCell>
        <mxCell id="nyYNzJePaRS5SE4JTXhw-14" value="amount" style="text;html=1;align=center;verticalAlign=middle;whiteSpace=wrap;rounded=0;strokeColor=default;" vertex="1" parent="1">
          <mxGeometry x="460" y="260" width="60" height="30" as="geometry" />
        </mxCell>
        <mxCell id="nyYNzJePaRS5SE4JTXhw-15" value="price" style="text;html=1;align=center;verticalAlign=middle;whiteSpace=wrap;rounded=0;strokeColor=default;" vertex="1" parent="1">
          <mxGeometry x="380" y="260" width="60" height="30" as="geometry" />
        </mxCell>
        <mxCell id="nyYNzJePaRS5SE4JTXhw-16" value="" style="rounded=0;whiteSpace=wrap;html=1;" vertex="1" parent="1">
          <mxGeometry x="150" y="310" width="290" height="60" as="geometry" />
        </mxCell>
        <mxCell id="nyYNzJePaRS5SE4JTXhw-17" value="product description" style="text;html=1;align=center;verticalAlign=middle;whiteSpace=wrap;rounded=0;strokeColor=default;" vertex="1" parent="1">
          <mxGeometry x="260" y="310" width="180" height="30" as="geometry" />
        </mxCell>
        <mxCell id="nyYNzJePaRS5SE4JTXhw-18" value="image" style="rounded=0;whiteSpace=wrap;html=1;" vertex="1" parent="1">
          <mxGeometry x="160" y="315" width="90" height="50" as="geometry" />
        </mxCell>
        <mxCell id="nyYNzJePaRS5SE4JTXhw-19" value="color" style="text;html=1;align=center;verticalAlign=middle;whiteSpace=wrap;rounded=0;strokeColor=default;" vertex="1" parent="1">
          <mxGeometry x="260" y="340" width="60" height="30" as="geometry" />
        </mxCell>
        <mxCell id="nyYNzJePaRS5SE4JTXhw-20" value="size" style="text;html=1;align=center;verticalAlign=middle;whiteSpace=wrap;rounded=0;strokeColor=default;" vertex="1" parent="1">
          <mxGeometry x="320" y="340" width="60" height="30" as="geometry" />
        </mxCell>
        <mxCell id="nyYNzJePaRS5SE4JTXhw-21" value="amount" style="text;html=1;align=center;verticalAlign=middle;whiteSpace=wrap;rounded=0;strokeColor=default;" vertex="1" parent="1">
          <mxGeometry x="460" y="340" width="60" height="30" as="geometry" />
        </mxCell>
        <mxCell id="nyYNzJePaRS5SE4JTXhw-22" value="price" style="text;html=1;align=center;verticalAlign=middle;whiteSpace=wrap;rounded=0;strokeColor=default;" vertex="1" parent="1">
          <mxGeometry x="380" y="340" width="60" height="30" as="geometry" />
        </mxCell>
        <mxCell id="nyYNzJePaRS5SE4JTXhw-23" value="" style="rounded=0;whiteSpace=wrap;html=1;" vertex="1" parent="1">
          <mxGeometry x="150" y="390" width="290" height="60" as="geometry" />
        </mxCell>
        <mxCell id="nyYNzJePaRS5SE4JTXhw-24" value="product description" style="text;html=1;align=center;verticalAlign=middle;whiteSpace=wrap;rounded=0;strokeColor=default;" vertex="1" parent="1">
          <mxGeometry x="260" y="390" width="180" height="30" as="geometry" />
        </mxCell>
        <mxCell id="nyYNzJePaRS5SE4JTXhw-25" value="image" style="rounded=0;whiteSpace=wrap;html=1;" vertex="1" parent="1">
          <mxGeometry x="160" y="395" width="90" height="50" as="geometry" />
        </mxCell>
        <mxCell id="nyYNzJePaRS5SE4JTXhw-26" value="color" style="text;html=1;align=center;verticalAlign=middle;whiteSpace=wrap;rounded=0;strokeColor=default;" vertex="1" parent="1">
          <mxGeometry x="260" y="420" width="60" height="30" as="geometry" />
        </mxCell>
        <mxCell id="nyYNzJePaRS5SE4JTXhw-27" value="size" style="text;html=1;align=center;verticalAlign=middle;whiteSpace=wrap;rounded=0;strokeColor=default;" vertex="1" parent="1">
          <mxGeometry x="320" y="420" width="60" height="30" as="geometry" />
        </mxCell>
        <mxCell id="nyYNzJePaRS5SE4JTXhw-28" value="amount" style="text;html=1;align=center;verticalAlign=middle;whiteSpace=wrap;rounded=0;strokeColor=default;" vertex="1" parent="1">
          <mxGeometry x="460" y="420" width="60" height="30" as="geometry" />
        </mxCell>
        <mxCell id="nyYNzJePaRS5SE4JTXhw-29" value="price" style="text;html=1;align=center;verticalAlign=middle;whiteSpace=wrap;rounded=0;strokeColor=default;" vertex="1" parent="1">
          <mxGeometry x="380" y="420" width="60" height="30" as="geometry" />
        </mxCell>
        <mxCell id="nyYNzJePaRS5SE4JTXhw-30" value="" style="ellipse;whiteSpace=wrap;html=1;aspect=fixed;" vertex="1" parent="1">
          <mxGeometry x="120" y="250" width="20" height="20" as="geometry" />
        </mxCell>
        <mxCell id="nyYNzJePaRS5SE4JTXhw-31" value="" style="ellipse;whiteSpace=wrap;html=1;aspect=fixed;" vertex="1" parent="1">
          <mxGeometry x="120" y="330" width="20" height="20" as="geometry" />
        </mxCell>
        <mxCell id="nyYNzJePaRS5SE4JTXhw-32" value="" style="ellipse;whiteSpace=wrap;html=1;aspect=fixed;" vertex="1" parent="1">
          <mxGeometry x="120" y="410" width="20" height="20" as="geometry" />
        </mxCell>
        <mxCell id="nyYNzJePaRS5SE4JTXhw-33" value="delete button" style="rounded=1;whiteSpace=wrap;html=1;" vertex="1" parent="1">
          <mxGeometry x="120" y="480" width="80" height="40" as="geometry" />
        </mxCell>
        <mxCell id="nyYNzJePaRS5SE4JTXhw-34" value="pay button" style="rounded=1;whiteSpace=wrap;html=1;" vertex="1" parent="1">
          <mxGeometry x="414" y="480" width="80" height="40" as="geometry" />
        </mxCell>
        <mxCell id="nyYNzJePaRS5SE4JTXhw-35" value="&lt;h1 style=&quot;margin-top: 0px;&quot;&gt;&lt;span style=&quot;background-color: initial; font-size: 12px; font-weight: normal;&quot;&gt;label Total Amount: display the total amount of product items&lt;/span&gt;&lt;br&gt;&lt;/h1&gt;&lt;div&gt;&lt;span style=&quot;background-color: initial;&quot;&gt;&lt;br&gt;&lt;/span&gt;&lt;/div&gt;&lt;div&gt;&lt;br&gt;&lt;/div&gt;" style="text;html=1;whiteSpace=wrap;overflow=hidden;rounded=0;" vertex="1" parent="1">
          <mxGeometry x="-140" y="137.5" width="190" height="75" as="geometry" />
        </mxCell>
        <mxCell id="nyYNzJePaRS5SE4JTXhw-37" value="" style="endArrow=none;dashed=1;html=1;dashPattern=1 3;strokeWidth=2;rounded=0;entryX=0;entryY=0.25;entryDx=0;entryDy=0;" edge="1" parent="1" source="nyYNzJePaRS5SE4JTXhw-35" target="nyYNzJePaRS5SE4JTXhw-4">
          <mxGeometry width="50" height="50" relative="1" as="geometry">
            <mxPoint x="230" y="340" as="sourcePoint" />
            <mxPoint x="280" y="290" as="targetPoint" />
          </mxGeometry>
        </mxCell>
        <mxCell id="nyYNzJePaRS5SE4JTXhw-39" style="edgeStyle=orthogonalEdgeStyle;rounded=0;orthogonalLoop=1;jettySize=auto;html=1;endArrow=none;endFill=0;dashed=1;" edge="1" parent="1" source="nyYNzJePaRS5SE4JTXhw-38" target="nyYNzJePaRS5SE4JTXhw-12">
          <mxGeometry relative="1" as="geometry" />
        </mxCell>
        <mxCell id="nyYNzJePaRS5SE4JTXhw-38" value="&lt;span style=&quot;text-align: left;&quot;&gt;label Total Price: display the total price of all product items&lt;/span&gt;" style="text;html=1;align=center;verticalAlign=middle;whiteSpace=wrap;rounded=0;" vertex="1" parent="1">
          <mxGeometry x="580" y="160" width="170" height="30" as="geometry" />
        </mxCell>
        <mxCell id="nyYNzJePaRS5SE4JTXhw-40" value="check box: customer can select the items he want to delete" style="text;html=1;align=center;verticalAlign=middle;whiteSpace=wrap;rounded=0;" vertex="1" parent="1">
          <mxGeometry x="-140" y="305" width="180" height="25" as="geometry" />
        </mxCell>
        <mxCell id="nyYNzJePaRS5SE4JTXhw-41" value="" style="endArrow=none;dashed=1;html=1;dashPattern=1 3;strokeWidth=2;rounded=0;entryX=0;entryY=1;entryDx=0;entryDy=0;exitX=1;exitY=0.5;exitDx=0;exitDy=0;" edge="1" parent="1" source="nyYNzJePaRS5SE4JTXhw-40" target="nyYNzJePaRS5SE4JTXhw-30">
          <mxGeometry width="50" height="50" relative="1" as="geometry">
            <mxPoint x="240" y="380" as="sourcePoint" />
            <mxPoint x="290" y="330" as="targetPoint" />
          </mxGeometry>
        </mxCell>
        <mxCell id="nyYNzJePaRS5SE4JTXhw-42" value="delete the items that have been select" style="text;html=1;align=center;verticalAlign=middle;whiteSpace=wrap;rounded=0;" vertex="1" parent="1">
          <mxGeometry x="-140" y="485" width="180" height="35" as="geometry" />
        </mxCell>
        <mxCell id="nyYNzJePaRS5SE4JTXhw-44" value="" style="endArrow=none;dashed=1;html=1;dashPattern=1 3;strokeWidth=2;rounded=0;entryX=0;entryY=0.5;entryDx=0;entryDy=0;exitX=1;exitY=0.5;exitDx=0;exitDy=0;" edge="1" parent="1" source="nyYNzJePaRS5SE4JTXhw-42" target="nyYNzJePaRS5SE4JTXhw-33">
          <mxGeometry width="50" height="50" relative="1" as="geometry">
            <mxPoint x="50" y="570" as="sourcePoint" />
            <mxPoint x="100" y="520" as="targetPoint" />
          </mxGeometry>
        </mxCell>
        <mxCell id="nyYNzJePaRS5SE4JTXhw-45" value="allow customers to proceed to the payment view" style="text;html=1;align=center;verticalAlign=middle;whiteSpace=wrap;rounded=0;" vertex="1" parent="1">
          <mxGeometry x="600" y="485" width="190" height="45" as="geometry" />
        </mxCell>
        <mxCell id="nyYNzJePaRS5SE4JTXhw-46" value="" style="endArrow=none;dashed=1;html=1;dashPattern=1 3;strokeWidth=2;rounded=0;entryX=0;entryY=0.25;entryDx=0;entryDy=0;exitX=1;exitY=0.5;exitDx=0;exitDy=0;" edge="1" parent="1" source="nyYNzJePaRS5SE4JTXhw-34" target="nyYNzJePaRS5SE4JTXhw-45">
          <mxGeometry width="50" height="50" relative="1" as="geometry">
            <mxPoint x="360" y="460" as="sourcePoint" />
            <mxPoint x="410" y="410" as="targetPoint" />
          </mxGeometry>
        </mxCell>
      </root>
    </mxGraphModel>
  </diagram>
</mxfile>
